<svg xmlns="http://www.w3.org/2000/svg" viewBox="0 0 256 256"><path fill="#1572B6" d="M0 16L20 0h216l20 16-20 224-108 32-108-32z"/><path fill="#33A9DC" d="M128 240V32h108l-20 192z"/><path fill="#fff" d="M128 208l-44-12-3-32h26l2 16 19 5 19-5 2-16h26l-3 32z"/><path fill="#EBEBEB" d="M128 176l-19-5-2-16H81l3 32 44 12z"/><path fill="#fff" d="M128 144V128h32l-2 16z"/><path fill="#EBEBEB" d="M128 128v16l-30-8-2-16z"/><path fill="#fff" d="M128 112V96h32l-2 16z"/><path fill="#EBEBEB" d="M128 96v16l-30-8-2-16z"/></svg> 